<?xml version="1.0" encoding="UTF-8"?><svg xmlns="http://www.w3.org/2000/svg" viewBox="0 0 50 50"><path d="M16 3C9.38 3 4 8.38 4 15v20c0 6.62 5.38 12 12 12h20c6.62 0 12-5.38 12-12V15c0-6.62-5.38-12-12-12H16zm-3.38 15.07c.7 0 1.22.5 1.22 1.16 0 .65-.52 1.15-1.22 1.15-.71 0-1.23-.5-1.23-1.15 0-.66.52-1.16 1.23-1.16zm10.42.57c3.65 0 5.9 2.55 5.9 6.64 0 4.08-2.23 6.65-5.9 6.65-3.69 0-5.93-2.56-5.93-6.65 0-4.1 2.29-6.64 5.93-6.64zm12.93 0c2.57 0 4.45 1.5 4.57 3.64h-1.92c-.19-1.17-1.2-1.9-2.68-1.9-1.56 0-2.59.74-2.59 1.89 0 .9.66 1.42 2.32 1.81l1.39.34c2.61.61 3.68 1.66 3.68 3.57 0 2.43-1.88 3.95-4.89 3.95-2.81 0-4.7-1.45-4.84-3.72h1.95c.17 1.2 1.35 1.97 3.04 1.97 1.58 0 2.74-.82 2.74-1.95 0-.96-.73-1.54-2.41-1.94l-1.64-.39c-2.29-.54-3.34-1.65-3.34-3.51 0-2.26 1.85-3.76 4.62-3.76zm-12.93 1.83c-2.39 0-3.91 1.87-3.91 4.81 0 2.93 1.47 4.82 3.91 4.82 2.41 0 3.89-1.89 3.89-4.82 0-2.94-1.48-4.81-3.89-4.81zm-11.36 1.59h1.88v9.57h-1.88v-9.57z"/><metadata><rdf:RDF xmlns:rdf="http://www.w3.org/1999/02/22-rdf-syntax-ns#" xmlns:rdfs="http://www.w3.org/2000/01/rdf-schema#" xmlns:dc="http://purl.org/dc/elements/1.1/"><rdf:Description about="https://iconscout.com/legal#licenses" dc:title="ios,logo,filled" dc:description="ios,logo,filled" dc:publisher="Iconscout" dc:date="2017-12-09" dc:format="image/svg+xml" dc:language="en"><dc:creator><rdf:Bag><rdf:li>Icons8</rdf:li></rdf:Bag></dc:creator></rdf:Description></rdf:RDF></metadata></svg>